<svg width="44" height="29" viewBox="0 0 44 29" fill="none" xmlns="http://www.w3.org/2000/svg">
<path d="M0.52 0.549998H8.05V2.71H2.92V26.32H8.05V28.45H0.52V0.549998ZM30.0883 25H27.5683L26.9383 14.2C26.8183 12.3 26.7583 9.81 26.7583 6.73L23.2783 21.28H20.6683L16.9483 6.73C16.9883 7.45 17.0083 8.41 17.0083 9.61C17.0083 11.45 16.9683 12.98 16.8883 14.2L16.3483 25H13.8883L15.0583 4.33H18.6883L22.0483 18.49L25.2583 4.33H28.9183L30.0883 25ZM43.4566 28.45H35.9266V26.32H41.0566V2.71H35.9266V0.549998H43.4566V28.45Z" fill="white"/>
</svg>
